<?xml version="1.0" encoding="UTF-8" standalone="no"?>
<!-- Created with Inkscape (http://www.inkscape.org/) -->

<svg
   width="172.15161mm"
   height="114.84373mm"
   viewBox="0 0 172.15161 114.84373"
   version="1.1"
   id="svg5"
   inkscape:version="1.1.2 (0a00cf5339, 2022-02-04)"
   sodipodi:docname="vectorcosm-logo-school-hollow-2.svg"
   xmlns:inkscape="http://www.inkscape.org/namespaces/inkscape"
   xmlns:sodipodi="http://sodipodi.sourceforge.net/DTD/sodipodi-0.dtd"
   xmlns="http://www.w3.org/2000/svg"
   xmlns:svg="http://www.w3.org/2000/svg">
  <sodipodi:namedview
     id="namedview7"
     pagecolor="#2d2a1d"
     bordercolor="#000000"
     borderopacity="0.25"
     inkscape:showpageshadow="2"
     inkscape:pageopacity="0"
     inkscape:pagecheckerboard="false"
     inkscape:deskcolor="#d1d1d1"
     inkscape:document-units="mm"
     showgrid="false"
     inkscape:zoom="0.84096521"
     inkscape:cx="283.6027"
     inkscape:cy="212.85066"
     inkscape:window-width="1920"
     inkscape:window-height="1111"
     inkscape:window-x="0"
     inkscape:window-y="0"
     inkscape:window-maximized="1"
     inkscape:current-layer="layer1"
     inkscape:pageshadow="2"
     fit-margin-top="0"
     fit-margin-left="0"
     fit-margin-right="0"
     fit-margin-bottom="0"
     showguides="false">
    <inkscape:grid
       type="xygrid"
       id="grid11317"
       originx="-83.456852"
       originy="-97.063963" />
  </sodipodi:namedview>
  <defs
     id="defs2" />
  <g
     inkscape:label="Layer 1"
     inkscape:groupmode="layer"
     id="layer1"
     transform="translate(-83.456851,-97.063956)">
    <path
       id="path8802"
       style="font-size:50.8px;font-family:'Labtop Secundo';-inkscape-font-specification:'Labtop Secundo';fill:#aaeeaa;stroke-width:94.19;stroke-linejoin:round;stroke-opacity:0;paint-order:stroke markers fill"
       d="m 104.76267,133.78159 8.16851,40.84351 h 1.9721 l 8.16851,-40.84351 c -6.17774,0 -11.36497,0.0278 -18.30912,0 z m 16.09995,1.53015 -6.84403,35.07537 -7.01454,-35.07331 c 2.15492,0.008 4.78366,0.0118 6.93861,0.009 2.01101,-0.003 4.91031,-0.009 6.92132,-0.0114 z"
       sodipodi:nodetypes="ccccccccccc" />
    <path
       id="path8802-3"
       style="font-size:50.8px;font-family:'Labtop Secundo';-inkscape-font-specification:'Labtop Secundo';fill:#aaeeaa;stroke-width:60.9374;stroke-linejoin:round;stroke-opacity:0;paint-order:stroke markers fill"
       d="m 92.960632,113.82194 -0.519136,26.94251 1.246047,0.27427 10.841487,-24.67044 c -3.90333,-0.85917 -7.184686,-1.56301 -11.568398,-2.54634 z m 9.959748,3.20591 -9.202419,21.21011 0.445767,-23.13619 c 1.360448,0.30475 3.020856,0.67274 4.382822,0.97067 1.271049,0.27778 3.10377,0.67721 4.37475,0.95539 z"
       sodipodi:nodetypes="ccccccccccc" />
    <path
       id="path8802-6"
       style="font-size:50.8px;font-family:'Labtop Secundo';-inkscape-font-specification:'Labtop Secundo';fill:#aaeeaa;stroke-width:75.2643;stroke-linejoin:round;stroke-opacity:0;paint-order:stroke markers fill"
       d="m 83.456851,164.27351 24.547509,22.47629 1.27144,-0.93098 -14.014786,-30.18856 c -3.982877,2.91634 -7.31405,5.38301 -11.804163,8.64325 z m 11.102221,-6.61386 12.145718,25.84452 -21.079571,-19.30092 c 1.392854,-1.01243 3.089414,-2.25098 4.477561,-3.26988 1.295345,-0.95096 3.161621,-2.32368 4.45696,-3.27463 z"
       sodipodi:nodetypes="ccccccccccc" />
    <path
       id="path8802-7"
       style="font-size:50.8px;font-family:'Labtop Secundo';-inkscape-font-specification:'Labtop Secundo';fill:#aaeeaa;stroke-width:35.1925;stroke-linejoin:round;stroke-opacity:0;paint-order:stroke markers fill"
       d="m 118.21797,196.57501 15.23706,3.16692 0.28862,-0.67797 -12.84701,-8.7836 c -0.90388,2.12388 -1.65309,3.91137 -2.67859,6.29469 z m 2.88143,-5.31132 11.05769,7.48439 -13.08444,-2.7195 c 0.31797,-0.7397 0.70392,-1.64289 1.01821,-2.38417 0.29329,-0.69178 0.71589,-1.68922 1.00925,-2.38096 z"
       sodipodi:nodetypes="ccccccccccc" />
    <path
       id="path8802-35"
       style="font-size:50.8px;font-family:'Labtop Secundo';-inkscape-font-specification:'Labtop Secundo';fill:#aaeeaa;stroke-width:48.3479;stroke-linejoin:round;stroke-opacity:0;paint-order:stroke markers fill"
       d="m 124.86466,97.063956 -12.66707,17.223814 0.68204,0.74803 18.31712,-11.02712 c -2.13652,-2.34324 -3.94104,-4.301164 -6.33209,-6.944724 z m 4.98767,6.635964 -15.67119,9.53463 10.87751,-14.790525 c 0.74224,0.820138 1.64993,1.818545 2.39626,2.634955 0.69665,0.76175 1.70162,1.85939 2.39803,2.62134 z"
       sodipodi:nodetypes="ccccccccccc" />
    <path
       id="path8802-62"
       style="font-size:50.8px;font-family:'Labtop Secundo';-inkscape-font-specification:'Labtop Secundo';fill:#aaeeaa;stroke-width:25.0273;stroke-linejoin:round;stroke-opacity:0;paint-order:stroke markers fill"
       d="m 135.9098,211.45382 11.05816,0.45387 0.12376,-0.50917 -10.03302,-4.67203 c -0.38765,1.59507 -0.70636,2.93604 -1.1489,4.72733 z m 1.40533,-4.06091 8.62685,3.96809 -9.49594,-0.38974 c 0.13716,-0.55592 0.30305,-1.23443 0.43735,-1.79105 0.12543,-0.51941 0.30619,-1.26828 0.4314,-1.78775 z"
       sodipodi:nodetypes="ccccccccccc" />
    <path
       id="path8802-62-9"
       style="font-size:50.8px;font-family:'Labtop Secundo';-inkscape-font-specification:'Labtop Secundo';fill:#aaeeaa;stroke-width:25.0273;stroke-linejoin:round;stroke-opacity:0;paint-order:stroke markers fill"
       d="m 156.90905,207.95607 10.41428,-3.74588 -0.0772,-0.51828 -11.05394,-0.54767 c 0.24188,1.62358 0.45189,2.98581 0.71685,4.81183 z m -0.22823,-4.29114 9.48616,0.42541 -8.94302,3.2167 c -0.0824,-0.56664 -0.18437,-1.25765 -0.26968,-1.82385 -0.0795,-0.52839 -0.19421,-1.29018 -0.27394,-1.81854 z"
       sodipodi:nodetypes="ccccccccccc" />
    <path
       id="path8802-62-1"
       style="font-size:50.8px;font-family:'Labtop Secundo';-inkscape-font-specification:'Labtop Secundo';fill:#aaeeaa;stroke-width:20.5334;stroke-linejoin:round;stroke-opacity:0;paint-order:stroke markers fill"
       d="m 176.71272,198.31668 5.69066,-7.07573 -0.27565,-0.3299 -7.97434,4.34279 c 0.86356,1.03345 1.59305,1.89752 2.55933,3.06284 z m -1.99456,-2.90714 6.82428,-3.7581 -4.88672,6.07613 c -0.29996,-0.36154 -0.66683,-0.8018 -0.96865,-1.16178 -0.2816,-0.336 -0.68763,-0.82037 -0.96937,-1.15625 z"
       sodipodi:nodetypes="ccccccccccc" />
    <path
       id="path8802-5"
       style="font-size:50.8px;font-family:'Labtop Secundo';-inkscape-font-specification:'Labtop Secundo';fill:#aaeeaa;stroke-width:49.2823;stroke-linejoin:round;stroke-opacity:0;paint-order:stroke markers fill"
       d="m 94.80987,201.05742 20.69569,6.82951 0.50924,-0.89743 -16.47711,-14.2639 c -1.59523,2.81126 -2.92206,5.17894 -4.72782,8.33182 z m 4.85367,-6.93138 14.19425,12.17171 -17.77188,-5.86465 c 0.56008,-0.97857 1.24032,-2.17399 1.79605,-3.15504 0.51784,-0.91596 1.26359,-2.23698 1.78215,-3.15253 z"
       sodipodi:nodetypes="ccccccccccc" />
    <path
       d="m 135.87322,174.625 h -10.3632 v -40.8432 h 10.3632 v 1.3716 h -8.636 v 15.2908 h 8.636 v 1.27 h -8.636 v 21.59 h 8.636 z"
       style="font-size:50.8px;font-family:'Labtop Secundo';-inkscape-font-specification:'Labtop Secundo';fill:#aaeeaa;stroke-width:80;stroke-linejoin:round;stroke-opacity:0;paint-order:stroke markers fill"
       id="path8804" />
    <path
       d="m 149.13202,168.8338 q 0,6.1976 -5.2832,6.1976 -5.2324,0 -5.2324,-6.1976 V 139.573 q 0,-6.1468 5.2324,-6.1468 5.2832,0 5.2832,6.1468 v 2.9464 h -1.7272 v -3.048 q 0,-4.7244 -3.556,-4.7244 -3.556,0 -3.556,4.7244 v 29.464 q 0,4.826 3.556,4.826 3.556,0 3.556,-4.826 v -3.2512 h 1.7272 z"
       style="font-size:50.8px;font-family:'Labtop Secundo';-inkscape-font-specification:'Labtop Secundo';fill:#aaeeaa;stroke-width:80;stroke-linejoin:round;stroke-opacity:0;paint-order:stroke markers fill"
       id="path8806" />
    <path
       d="m 163.5592,135.2042 h -5.53721 v 39.4208 h -1.7272 v -39.4208 h -5.7404 v -1.4224 h 13.00481 z"
       style="font-size:50.8px;font-family:'Labtop Secundo';-inkscape-font-specification:'Labtop Secundo';fill:#aaeeaa;stroke-width:80;stroke-linejoin:round;stroke-opacity:0;paint-order:stroke markers fill"
       id="path8808" />
    <path
       d="m 175.70028,168.8338 q 0,6.1976 -5.28321,6.1976 -5.2324,0 -5.2324,-6.1976 V 139.573 q 0,-6.1468 5.2324,-6.1468 5.28321,0 5.28321,6.1468 z m -1.7272,0.1016 v -29.464 q 0,-4.7244 -3.55601,-4.7244 -3.556,0 -3.556,4.7244 v 29.464 q 0,4.826 3.556,4.826 3.55601,0 3.55601,-4.826 z"
       style="font-size:50.8px;font-family:'Labtop Secundo';-inkscape-font-specification:'Labtop Secundo';fill:#aaeeaa;stroke-width:80;stroke-linejoin:round;stroke-opacity:0;paint-order:stroke markers fill"
       id="path8810" />
    <path
       d="m 190.38147,174.625 h -1.6256 v -17.8816 q 0,-2.4892 -0.8636,-3.4036 -1.016,-1.1176 -3.302,-1.1176 h -2.9464 v 22.4028 h -1.7272 v -40.8432 h 5.1308 q 3.302,0 4.4196,1.6256 0.9144,1.27 0.9144,4.7244 v 6.1976 q 0,4.1148 -2.8956,4.9276 2.8956,1.0668 2.8956,5.2832 z m -1.6256,-28.448 v -6.604 q 0,-2.54 -0.8636,-3.4544 -0.8128,-0.9144 -3.302,-0.9144 h -2.9464 v 15.4432 h 2.9464 q 2.4892,0 3.4036,-1.016 0.762,-0.9144 0.762,-3.4544 z"
       style="font-size:50.8px;font-family:'Labtop Secundo';-inkscape-font-specification:'Labtop Secundo';fill:#aaeeaa;stroke-width:80;stroke-linejoin:round;stroke-opacity:0;paint-order:stroke markers fill"
       id="path8812" />
    <path
       d="m 205.31659,168.8338 q 0,6.1976 -5.2832,6.1976 -5.2324,0 -5.2324,-6.1976 V 139.573 q 0,-6.1468 5.2324,-6.1468 5.2832,0 5.2832,6.1468 v 2.9464 h -1.7272 v -3.048 q 0,-4.7244 -3.556,-4.7244 -3.556,0 -3.556,4.7244 v 29.464 q 0,4.826 3.556,4.826 3.556,0 3.556,-4.826 v -3.2512 h 1.7272 z"
       style="font-size:50.8px;font-family:'Labtop Secundo';-inkscape-font-specification:'Labtop Secundo';fill:#aaeeaa;stroke-width:80;stroke-linejoin:round;stroke-opacity:0;paint-order:stroke markers fill"
       id="path8814" />
    <path
       d="m 218.77856,168.8338 q 0,6.1976 -5.2832,6.1976 -5.2324,0 -5.2324,-6.1976 V 139.573 q 0,-6.1468 5.2324,-6.1468 5.2832,0 5.2832,6.1468 z m -1.7272,0.1016 v -29.464 q 0,-4.7244 -3.556,-4.7244 -3.556,0 -3.556,4.7244 v 29.464 q 0,4.826 3.556,4.826 3.556,0 3.556,-4.826 z"
       style="font-size:50.8px;font-family:'Labtop Secundo';-inkscape-font-specification:'Labtop Secundo';fill:#aaeeaa;stroke-width:80;stroke-linejoin:round;stroke-opacity:0;paint-order:stroke markers fill"
       id="path8816" />
    <path
       d="m 232.74855,168.8338 q 0,6.1976 -5.1816,6.1976 -5.334,0 -5.334,-6.1976 v -2.8956 h 1.778 v 2.9972 q 0,4.7244 3.556,4.7244 3.556,0 3.556,-4.7244 v -13.1572 q 0,-3.81 -3.556,-3.81 -5.334,0 -5.334,-6.2484 v -6.1468 q 0,-6.1468 5.334,-6.1468 5.1816,0 5.1816,6.1468 v 3.2004 h -1.6256 v -3.302 q 0,-4.7752 -3.556,-4.7752 -3.556,0 -3.556,4.7752 v 6.4008 q 0,4.826 3.556,4.826 4.6736,0 5.1308,4.5212 h 0.0508 z"
       style="font-size:50.8px;font-family:'Labtop Secundo';-inkscape-font-specification:'Labtop Secundo';fill:#aaeeaa;stroke-width:80;stroke-linejoin:round;stroke-opacity:0;paint-order:stroke markers fill"
       id="path8818" />
    <path
       d="m 255.60846,174.625 h -1.6764 v -34.2392 l -7.366,31.75 h -1.3716 l -7.0612,-31.3436 v 33.8328 h -1.7272 v -40.8432 h 1.778 l 7.6708,34.4932 7.9756,-34.4932 h 1.778 z"
       style="font-size:50.8px;font-family:'Labtop Secundo';-inkscape-font-specification:'Labtop Secundo';fill:#aaeeaa;stroke-width:80;stroke-linejoin:round;stroke-opacity:0;paint-order:stroke markers fill"
       id="path8820" />
  </g>
</svg>
